<?xml version="1.0" standalone="no"?>
<!DOCTYPE svg PUBLIC "-//W3C//DTD SVG 20010904//EN"
 "http://www.w3.org/TR/2001/REC-SVG-20010904/DTD/svg10.dtd">
<svg version="1.0" xmlns="http://www.w3.org/2000/svg"
 width="144.000000pt" height="144.000000pt" viewBox="0 0 144.000000 144.000000"
 preserveAspectRatio="xMidYMid meet">
<metadata>
Created by potrace 1.11, written by Peter Selinger 2001-2013
</metadata>
<g transform="translate(0.000000,144.000000) scale(0.100000,-0.100000)"
fill="#000000" stroke="none">
<path d="M620 1415 c0 -20 -5 -25 -25 -25 -20 0 -25 -5 -25 -25 0 -23 -3 -25
-50 -25 -47 0 -50 -2 -50 -25 0 -20 -5 -25 -25 -25 -20 0 -25 -5 -25 -25 0
-20 -5 -25 -25 -25 -23 0 -25 -3 -25 -50 0 -47 -2 -50 -25 -50 l-25 0 0 -100
0 -100 -25 0 c-24 0 -25 -2 -25 -75 0 -73 1 -75 25 -75 20 0 25 -5 25 -25 0
-20 -5 -25 -25 -25 -20 0 -25 -5 -25 -25 0 -20 -5 -25 -25 -25 -20 0 -25 -5
-25 -25 0 -20 -5 -25 -25 -25 -23 0 -25 -3 -25 -50 0 -47 -2 -50 -25 -50 l-25
0 0 -100 0 -100 25 0 c23 0 25 3 25 50 0 47 2 50 25 50 20 0 25 5 25 25 0 20
5 25 25 25 24 0 25 -2 25 -75 0 -73 -1 -75 -25 -75 -23 0 -25 -3 -25 -50 0
-47 -2 -50 -25 -50 -20 0 -25 -5 -25 -25 0 -23 -3 -25 -50 -25 -47 0 -50 -2
-50 -25 0 -23 3 -25 50 -25 47 0 50 -2 50 -25 l0 -25 150 0 150 0 0 -45 0 -45
375 0 375 0 0 70 c0 68 -1 70 -25 70 -20 0 -25 5 -25 25 0 20 5 25 25 25 20 0
25 5 25 25 0 20 -5 25 -25 25 -20 0 -25 5 -25 25 0 20 -5 25 -25 25 -20 0 -25
5 -25 25 0 20 5 25 25 25 20 0 25 5 25 25 0 20 5 25 25 25 23 0 25 3 25 50 0
47 2 50 25 50 23 0 25 3 25 50 0 47 2 50 25 50 23 0 25 3 25 50 0 47 2 50 25
50 l25 0 0 225 0 225 -25 0 c-23 0 -25 3 -25 50 0 47 -2 50 -25 50 -20 0 -25
5 -25 25 0 20 -5 25 -25 25 -20 0 -25 5 -25 25 0 20 -5 25 -25 25 -20 0 -25 5
-25 25 0 23 -3 25 -50 25 -47 0 -50 2 -50 25 0 24 -2 25 -75 25 -73 0 -75 -1
-75 -25 0 -20 -5 -25 -25 -25 -20 0 -25 5 -25 25 l0 25 -125 0 -125 0 0 -25z"/>
</g>
</svg>
